<svg xmlns="http://www.w3.org/2000/svg" xmlns:xlink="http://www.w3.org/1999/xlink" width="500" zoomAndPan="magnify" viewBox="0 0 375 374.999991" height="500" preserveAspectRatio="xMidYMid meet" version="1.0"><defs><g/></defs><path stroke-linecap="butt" transform="matrix(0.751576, 0, 0, 0.768, 91.066859, 212.627213)" fill="none" stroke-linejoin="miter" d="M -0.000601762 0.00220444 L 148.6921 0.00220444 " stroke="#000000" stroke-width="12" stroke-opacity="1" stroke-miterlimit="4"/><g fill="#000000" fill-opacity="1"><g transform="translate(91.066859, 195.564269)"><g><path d="M 37.046875 -35.234375 L 37.046875 0 L 27.078125 0 L 27.078125 -13.75 L 13.484375 -13.75 L 13.484375 0 L 3.53125 0 L 3.53125 -35.234375 L 13.484375 -35.234375 L 13.484375 -22 L 27.078125 -22 L 27.078125 -35.234375 Z M 37.046875 -35.234375 "/></g></g></g><g fill="#000000" fill-opacity="1"><g transform="translate(136.021735, 195.564269)"><g><path d="M 31.8125 -7.703125 L 31.8125 0 L 3.53125 0 L 3.53125 -35.234375 L 31.15625 -35.234375 L 31.15625 -27.53125 L 13.390625 -27.53125 L 13.390625 -21.59375 L 29.046875 -21.59375 L 29.046875 -14.140625 L 13.390625 -14.140625 L 13.390625 -7.703125 Z M 31.8125 -7.703125 "/></g></g></g><g fill="#000000" fill-opacity="1"><g transform="translate(174.230964, 195.564269)"><g><path d="M 17.109375 -12.78125 L 13.390625 -8.8125 L 13.390625 0 L 3.53125 0 L 3.53125 -35.234375 L 13.390625 -35.234375 L 13.390625 -20.59375 L 27.03125 -35.234375 L 38.015625 -35.234375 L 23.609375 -19.640625 L 38.765625 0 L 27.1875 0 Z M 17.109375 -12.78125 "/></g></g></g><g fill="#000000" fill-opacity="1"><g transform="translate(216.467448, 195.564269)"><g><path d="M 30.609375 -18.375 C 32.617188 -17.664062 34.191406 -16.566406 35.328125 -15.078125 C 36.472656 -13.585938 37.046875 -11.785156 37.046875 -9.671875 C 37.046875 -6.578125 35.804688 -4.191406 33.328125 -2.515625 C 30.847656 -0.835938 27.253906 0 22.546875 0 L 3.53125 0 L 3.53125 -35.234375 L 21.546875 -35.234375 C 26.046875 -35.234375 29.46875 -34.398438 31.8125 -32.734375 C 34.164062 -31.078125 35.34375 -28.84375 35.34375 -26.03125 C 35.34375 -24.351562 34.929688 -22.847656 34.109375 -21.515625 C 33.285156 -20.191406 32.117188 -19.144531 30.609375 -18.375 Z M 13.390625 -28.046875 L 13.390625 -21.25 L 20.234375 -21.25 C 23.585938 -21.25 25.265625 -22.390625 25.265625 -24.671875 C 25.265625 -26.921875 23.585938 -28.046875 20.234375 -28.046875 Z M 21.75 -7.203125 C 25.238281 -7.203125 26.984375 -8.394531 26.984375 -10.78125 C 26.984375 -13.15625 25.238281 -14.34375 21.75 -14.34375 L 13.390625 -14.34375 L 13.390625 -7.203125 Z M 21.75 -7.203125 "/></g></g></g><g fill="#000000" fill-opacity="1"><g transform="translate(259.559727, 195.564269)"><g><path d="M 27.140625 -6.84375 L 12.234375 -6.84375 L 9.46875 0 L -0.703125 0 L 14.84375 -35.234375 L 24.671875 -35.234375 L 40.28125 0 L 29.90625 0 Z M 24.21875 -14.203125 L 19.6875 -25.46875 L 15.15625 -14.203125 Z M 24.21875 -14.203125 "/></g></g></g><g fill="#000000" fill-opacity="1"><g transform="translate(208.34378, 216.12809)"><g><path d="M 6.421875 -4.046875 C 6.867188 -3.921875 7.222656 -3.691406 7.484375 -3.359375 C 7.742188 -3.023438 7.875 -2.609375 7.875 -2.109375 C 7.875 -1.429688 7.617188 -0.910156 7.109375 -0.546875 C 6.597656 -0.179688 5.859375 0 4.890625 0 L 1.171875 0 L 1.171875 -7.796875 L 4.671875 -7.796875 C 5.554688 -7.796875 6.242188 -7.617188 6.734375 -7.265625 C 7.222656 -6.910156 7.46875 -6.414062 7.46875 -5.78125 C 7.46875 -5.375 7.367188 -5.019531 7.171875 -4.71875 C 6.984375 -4.425781 6.734375 -4.203125 6.421875 -4.046875 Z M 2.28125 -6.890625 L 2.28125 -4.40625 L 4.5625 -4.40625 C 5.132812 -4.40625 5.570312 -4.507812 5.875 -4.71875 C 6.1875 -4.925781 6.34375 -5.234375 6.34375 -5.640625 C 6.34375 -6.054688 6.1875 -6.367188 5.875 -6.578125 C 5.570312 -6.785156 5.132812 -6.890625 4.5625 -6.890625 Z M 4.84375 -0.90625 C 5.476562 -0.90625 5.953125 -1.007812 6.265625 -1.21875 C 6.585938 -1.425781 6.75 -1.75 6.75 -2.1875 C 6.75 -3.0625 6.113281 -3.5 4.84375 -3.5 L 2.28125 -3.5 L 2.28125 -0.90625 Z M 4.84375 -0.90625 "/></g></g></g><g fill="#000000" fill-opacity="1"><g transform="translate(219.539582, 216.12809)"><g><path d="M 6.828125 -0.96875 L 6.828125 0 L 1.171875 0 L 1.171875 -7.796875 L 6.671875 -7.796875 L 6.671875 -6.828125 L 2.28125 -6.828125 L 2.28125 -4.4375 L 6.1875 -4.4375 L 6.1875 -3.484375 L 2.28125 -3.484375 L 2.28125 -0.96875 Z M 6.828125 -0.96875 "/></g></g></g><g fill="#000000" fill-opacity="1"><g transform="translate(229.766351, 216.12809)"><g/></g></g><g fill="#000000" fill-opacity="1"><g transform="translate(235.52665, 216.12809)"><g><path d="M 4.15625 -2.703125 L 4.15625 0 L 3.046875 0 L 3.046875 -2.71875 L -0.046875 -7.796875 L 1.140625 -7.796875 L 3.640625 -3.6875 L 6.15625 -7.796875 L 7.25 -7.796875 Z M 4.15625 -2.703125 "/></g></g></g><g fill="#000000" fill-opacity="1"><g transform="translate(245.497238, 216.12809)"><g><path d="M 4.6875 0.09375 C 3.90625 0.09375 3.195312 -0.078125 2.5625 -0.421875 C 1.925781 -0.773438 1.425781 -1.253906 1.0625 -1.859375 C 0.707031 -2.472656 0.53125 -3.15625 0.53125 -3.90625 C 0.53125 -4.65625 0.707031 -5.332031 1.0625 -5.9375 C 1.425781 -6.539062 1.925781 -7.015625 2.5625 -7.359375 C 3.195312 -7.710938 3.90625 -7.890625 4.6875 -7.890625 C 5.46875 -7.890625 6.171875 -7.710938 6.796875 -7.359375 C 7.429688 -7.015625 7.925781 -6.539062 8.28125 -5.9375 C 8.644531 -5.332031 8.828125 -4.65625 8.828125 -3.90625 C 8.828125 -3.144531 8.644531 -2.460938 8.28125 -1.859375 C 7.925781 -1.253906 7.429688 -0.773438 6.796875 -0.421875 C 6.171875 -0.078125 5.46875 0.09375 4.6875 0.09375 Z M 4.6875 -0.90625 C 5.257812 -0.90625 5.773438 -1.035156 6.234375 -1.296875 C 6.691406 -1.554688 7.050781 -1.910156 7.3125 -2.359375 C 7.570312 -2.816406 7.703125 -3.332031 7.703125 -3.90625 C 7.703125 -4.46875 7.570312 -4.972656 7.3125 -5.421875 C 7.050781 -5.878906 6.691406 -6.238281 6.234375 -6.5 C 5.773438 -6.757812 5.257812 -6.890625 4.6875 -6.890625 C 4.113281 -6.890625 3.59375 -6.757812 3.125 -6.5 C 2.664062 -6.238281 2.304688 -5.878906 2.046875 -5.421875 C 1.785156 -4.972656 1.65625 -4.46875 1.65625 -3.90625 C 1.65625 -3.332031 1.785156 -2.816406 2.046875 -2.359375 C 2.304688 -1.910156 2.664062 -1.554688 3.125 -1.296875 C 3.59375 -1.035156 4.113281 -0.90625 4.6875 -0.90625 Z M 4.6875 -0.90625 "/></g></g></g><g fill="#000000" fill-opacity="1"><g transform="translate(257.617515, 216.12809)"><g><path d="M 4.40625 0.09375 C 3.363281 0.09375 2.550781 -0.203125 1.96875 -0.796875 C 1.394531 -1.390625 1.109375 -2.242188 1.109375 -3.359375 L 1.109375 -7.796875 L 2.21875 -7.796875 L 2.21875 -3.40625 C 2.21875 -1.738281 2.945312 -0.90625 4.40625 -0.90625 C 5.125 -0.90625 5.671875 -1.109375 6.046875 -1.515625 C 6.429688 -1.929688 6.625 -2.5625 6.625 -3.40625 L 6.625 -7.796875 L 7.703125 -7.796875 L 7.703125 -3.359375 C 7.703125 -2.242188 7.410156 -1.390625 6.828125 -0.796875 C 6.242188 -0.203125 5.4375 0.09375 4.40625 0.09375 Z M 4.40625 0.09375 "/></g></g></g></svg>